<svg width="20" height="20" viewBox="0 0 20 20" fill="none" xmlns="http://www.w3.org/2000/svg">
<g clip-path="url(#clip0_17_40)">
<path d="M18.9362 0H1.06383C0.476383 0 0 0.476383 0 1.06383V18.9362C0 19.5236 0.476383 20 1.06383 20H18.9362C19.5238 20 20 19.5236 20 18.9362V1.06383C20 0.476383 19.5238 0 18.9362 0ZM5.62 17.9151H2.33319V7.34106H5.61979L5.62 17.9151ZM3.97723 5.89574C2.92383 5.89574 2.07106 5.04192 2.07106 3.98979C2.07128 2.93915 2.92426 2.08511 3.97723 2.08511C5.02809 2.08511 5.8817 2.93872 5.8817 3.98979C5.8817 5.04192 5.02809 5.89574 3.97723 5.89574ZM17.9289 17.9149H14.6451V12.773C14.6451 11.5466 14.6228 9.96915 12.9368 9.96915C11.2277 9.96915 10.9649 11.3049 10.9649 12.6838V17.9149H7.68064V7.34106H10.833V8.78574H10.877C11.316 7.95447 12.3883 7.07787 13.9864 7.07787C17.3143 7.07787 17.9287 9.26809 17.9287 12.1147L17.9289 17.9149Z" fill="white"/>
</g>
<defs>
<clipPath id="clip0_17_40">
<rect width="20" height="20" fill="white"/>
</clipPath>
</defs>
</svg>
