<svg id="Capa_1" enable-background="new 0 0 512 512" height="512" viewBox="0 0 512 512" width="512" xmlns="http://www.w3.org/2000/svg" xmlns:xlink="http://www.w3.org/1999/xlink"><linearGradient id="SVGID_1_" gradientUnits="userSpaceOnUse" x1="256" x2="256" y1="481" y2="31"><stop offset="0" stop-color="#a93aff"/><stop offset="1" stop-color="#ff81ff"/></linearGradient><g><g><path d="m76 61c8.284 0 15-6.716 15-15s-6.716-15-15-15-15 6.716-15 15 6.716 15 15 15zm150 30h15v15c0 8.284 6.716 15 15 15s15-6.716 15-15v-15h15c8.284 0 15-6.716 15-15s-6.716-15-15-15h-15v-15c0-8.284-6.716-15-15-15s-15 6.716-15 15v15h-15c-8.284 0-15 6.716-15 15s6.716 15 15 15zm271 90c-24.813 0-45-20.187-45-45 0-8.284-6.716-15-15-15s-15 6.716-15 15c0 24.813-20.187 45-45 45-8.284 0-15 6.716-15 15s6.716 15 15 15c24.813 0 45 20.187 45 45 0 8.284 6.716 15 15 15s15-6.716 15-15c0-24.813 20.187-45 45-45 8.284 0 15-6.716 15-15s-6.716-15-15-15zm-60 30.047c-4.279-5.698-9.35-10.768-15.047-15.047 5.697-4.279 10.768-9.35 15.047-15.047 4.279 5.698 9.35 10.768 15.047 15.047-5.697 4.279-10.768 9.35-15.047 15.047zm-362 209.953h-15v-15c0-8.284-6.716-15-15-15s-15 6.716-15 15v15h-15c-8.284 0-15 6.716-15 15s6.716 15 15 15h15v15c0 8.284 6.716 15 15 15s15-6.716 15-15v-15h15c8.284 0 15-6.716 15-15s-6.716-15-15-15zm361-360c8.284 0 15-6.716 15-15s-6.716-15-15-15-15 6.716-15 15 6.716 15 15 15zm-270 360c-8.284 0-15 6.716-15 15s6.716 15 15 15 15-6.716 15-15-6.716-15-15-15zm271-60c-41.355 0-75-33.645-75-75 0-8.284-6.716-15-15-15s-15 6.716-15 15c0 41.355-33.645 75-75 75-8.284 0-15 6.716-15 15s6.716 15 15 15c41.355 0 75 33.645 75 75 0 8.284 6.716 15 15 15s15-6.716 15-15c0-41.355 33.645-75 75-75 8.284 0 15-6.716 15-15s-6.716-15-15-15zm-90 50.963c-8.868-14.714-21.249-27.094-35.963-35.963 14.714-8.869 27.095-21.249 35.963-35.963 8.868 14.714 21.249 27.094 35.963 35.963-14.714 8.869-27.095 21.249-35.963 35.963zm-92-170.963c8.284 0 15-6.716 15-15s-6.716-15-15-15c-57.897 0-105-47.103-105-105 0-8.284-6.716-15-15-15s-15 6.716-15 15c0 57.897-47.103 105-105 105-8.284 0-15 6.716-15 15s6.716 15 15 15c57.897 0 105 47.103 105 105 0 8.284 6.716 15 15 15s15-6.716 15-15c0-57.897 47.103-105 105-105zm-120 43.188c-12.879-24.9-33.288-45.309-58.188-58.188 24.899-12.879 45.309-33.288 58.188-58.188 12.879 24.9 33.288 45.309 58.188 58.188-24.9 12.879-45.309 33.288-58.188 58.188z" fill="url(#SVGID_1_)"/></g></g></svg>